<svg width="86" height="85" viewBox="0 0 86 85" fill="none" xmlns="http://www.w3.org/2000/svg">
<ellipse cx="43" cy="42.5" rx="43" ry="42.5" fill="#D9D9D9"/>
<g clip-path="url(#clip0_117_39)">
<path d="M43.3386 44.9262C48.5958 44.9262 52.8612 40.7104 52.8612 35.5143C52.8612 30.3181 48.5958 26.1024 43.3386 26.1024C38.0813 26.1024 33.8159 30.3181 33.8159 35.5143C33.8159 40.7104 38.0813 44.9262 43.3386 44.9262ZM51.8031 47.0177H48.1594C46.6913 47.6844 45.0579 48.0635 43.3386 48.0635C41.6192 48.0635 39.9924 47.6844 38.5177 47.0177H34.874C30.1986 47.0177 26.4094 50.7629 26.4094 55.3839V56.4296C26.4094 58.1617 27.8312 59.5669 29.5836 59.5669H57.0935C58.8459 59.5669 60.2677 58.1617 60.2677 56.4296V55.3839C60.2677 50.7629 56.4785 47.0177 51.8031 47.0177Z" fill="black"/>
</g>
<defs>
<clipPath id="clip0_117_39">
<rect width="33.8583" height="33.4646" fill="white" transform="translate(26.4094 26.1024)"/>
</clipPath>
</defs>
</svg>
